<svg xmlns="http://www.w3.org/2000/svg" xml:space="preserve" width="1280" height="720" viewBox="0 0 1280 720">
  <path
    d="M287.61 433.23 443.77 223.9s11.93-13.15 33.06 9.96l95.08-122.55s12.36-15.25 25.81 0S717.1 268.88 717.1 268.88l17.78-16.83s17.77-8.18 23.23 6.59L881.72 438.3s3.82 6.28-5.66 3.84c0 0-165.3-40.05-291.02 101.12 0 0-76.42-101.82-255.33-112.66 0 0-1.9-2.56 3.97-5.11 5.87-2.54 110.84-54.22 251.36 86.31 0 0 116.12-129.64 258.02-88.94L610.88 202.94l-25.84 89.52-50.16-58.61z"
    fill="#fff"
  />
  <path
    d="M290.08 477.34s118.35 1.28 294.2 110.13c0 0 160.47-112.11 293.69-99.1 0 0 18.73 2.93 1.95-7.74s-130.02-61.22-295.64 84.7c0 0-175.01-148.56-294.2-94.8 0 0-5.38 4.78 0 6.81"
    fill="#fff"
  />
</svg>
