<svg xmlns="http://www.w3.org/2000/svg" xml:space="preserve" width="599.3" height="482.7" viewBox="0 0 599 483">
  <path
    d="m0 329 156-209s12-13 33 10L284 7s12-15 26 0 119 158 119 158l18-17s18-8 23 7l124 179s4 7-6 4c0 0-165-40-291 101 0 0-76-102-255-112 0 0-2-3 4-6 6-2 111-54 251 87 0 0 116-130 258-89L323 99l-26 89-50-58z"
    fill="#ffffff"
  />
  <path
    d="M2 373s118 2 294 110c0 0 161-112 294-99 0 0 19 3 2-7s-130-62-296 84c0 0-175-148-294-94 0 0-5 4 0 6"
    fill="#ffffff"
  />
</svg>

